<svg xmlns="http://www.w3.org/2000/svg" xmlns:xlink="http://www.w3.org/1999/xlink" id="图层_1" x="0" y="0" version="1.1" viewBox="0 0 720 215" xml:space="preserve" style="enable-background:new 0 0 720 215"><style type="text/css">.st0{fill:#abbf7b}.st1{fill:#c9e091}.st2{fill:#4caf50}</style><switch><g><g id="_1_1_"><path d="M475.3,114.3l19.4,19.4c2.3,1.2,4.7,2.2,7.2,3l-29.5-29.6C473.1,109.6,474.1,112,475.3,114.3z" class="st0"/><path d="M548.5,124.4l-64-64.1c-0.7,0.7-1.4,1.4-2.1,2.1l63.9,64.1C547.1,125.9,547.8,125.2,548.5,124.4z" class="st0"/><path d="M544.1,128.5l-63.6-63.8c-0.6,0.8-1.2,1.6-1.8,2.4l63.1,63.3C542.6,129.8,543.3,129.1,544.1,128.5z" class="st0"/><path d="M558.1,108.7l-57.8-58c-1,0.4-2,0.8-3,1.2l59.6,59.9C557.3,110.8,557.7,109.8,558.1,108.7z" class="st0"/><path d="M539.3,132L477,69.6c-0.5,0.9-1.1,1.8-1.6,2.7l61.1,61.2C537.5,133.1,538.4,132.6,539.3,132z" class="st0"/><path d="M552.3,119.8l-63.1-63.3c-0.8,0.6-1.6,1.2-2.4,1.8l63.7,63.8C551.1,121.4,551.7,120.6,552.3,119.8z" class="st0"/><path d="M520.5,138.5l-49.9-50.1c-0.1,1.3-0.2,2.6-0.3,3.9l46.3,46.4C517.9,138.7,519.1,138.7,520.5,138.5z" class="st0"/><path d="M533.7,134.9l-59.6-59.8c-0.5,1-0.8,2-1.2,3l57.8,58C531.8,135.8,532.8,135.4,533.7,134.9z" class="st0"/><path d="M507.4,138.1c1.6,0.3,3.2,0.5,4.8,0.6l-41.9-42c0.1,1.6,0.3,3.2,0.6,4.8L507.4,138.1z" class="st0"/><path d="M559.9,102.1l-53.1-53.2c-1.1,0.2-2.3,0.5-3.4,0.8l55.7,55.8C559.4,104.4,559.7,103.3,559.9,102.1z" class="st0"/><path d="M527.5,137.2l-55.7-55.8c-0.3,1.1-0.5,2.2-0.8,3.4l53,53.2C525.3,137.7,526.4,137.5,527.5,137.2z" class="st0"/><path d="M555.5,114.6l-61.1-61.3c-0.9,0.5-1.8,1-2.7,1.6l62.3,62.5C554.5,116.4,555,115.5,555.5,114.6z" class="st0"/><path d="M560,85.4l-36.5-36.6c-1.6-0.3-3.2-0.5-4.8-0.6l41.9,42C560.5,88.6,560.2,87,560,85.4z" class="st0"/><path d="M555.7,72.6l-19.4-19.5c-2.3-1.2-4.7-2.2-7.2-3l29.5,29.6C557.9,77.3,556.9,74.9,555.7,72.6z" class="st0"/><path d="M560.7,94.5L514.5,48c-1.3,0-2.7,0.1-3.9,0.3l49.9,50.1C560.6,97.1,560.7,95.9,560.7,94.5z" class="st0"/><path d="M536.2,53.1l19.5,19.5C551.4,64.3,544.6,57.5,536.2,53.1z" class="st1"/><path d="M558.6,79.8l-29.5-29.6c-1.8-0.6-3.7-1.1-5.6-1.4L560,85.4C559.7,83.5,559.2,81.6,558.6,79.8z" class="st1"/><path d="M560.7,93.4c0-1.1,0-2.1-0.1-3.2l-41.9-42c-1.1-0.1-2.1-0.1-3.2-0.1h-1.1l46.3,46.4 C560.7,94.2,560.7,93.8,560.7,93.4z" class="st1"/><path d="M560.4,98.5l-49.9-50.1c-1.2,0.1-2.5,0.3-3.7,0.5l53,53.2C560.1,100.9,560.3,99.7,560.4,98.5z" class="st1"/><path d="M559.1,105.5l-55.7-55.8c-1.1,0.3-2.1,0.6-3.2,1l57.8,58C558.5,107.7,558.8,106.6,559.1,105.5z" class="st1"/><path d="M556.9,111.8l-59.6-59.9c-1,0.4-1.9,0.9-2.8,1.4l61.1,61.3C556,113.6,556.5,112.7,556.9,111.8z" class="st1"/><path d="M554,117.3l-62.3-62.5c-0.9,0.5-1.7,1.1-2.5,1.7l63.1,63.3C552.9,119,553.4,118.1,554,117.3z" class="st1"/><path d="M550.5,122.2l-63.7-63.8c-0.8,0.6-1.5,1.3-2.2,2l63.9,64.1C549.2,123.7,549.8,123,550.5,122.2z" class="st1"/><path d="M546.4,126.5l-64-64.1c-0.7,0.7-1.3,1.5-2,2.2l63.7,63.8C544.9,127.9,545.7,127.2,546.4,126.5z" class="st1"/><path d="M541.7,130.3l-63.1-63.2c-0.6,0.8-1.1,1.6-1.7,2.5l62.2,62.4C540.1,131.5,541,131,541.7,130.3z" class="st1"/><path d="M536.6,133.5l-61.1-61.3c-0.5,0.9-1,1.9-1.4,2.8l59.6,59.8C534.7,134.5,535.6,134.1,536.6,133.5z" class="st1"/><path d="M530.7,136.1l-57.8-58c-0.4,1.1-0.7,2.1-1,3.2l55.7,55.8C528.6,136.9,529.7,136.6,530.7,136.1z" class="st1"/><path d="M524.1,138l-53-53.2c-0.2,1.2-0.4,2.4-0.5,3.7l49.9,50.1C521.7,138.4,522.9,138.2,524.1,138z" class="st1"/><path d="M515.5,138.8h1.1l-46.3-46.4v1.1c0,1.1,0,2.2,0.1,3.2l41.9,42C513.3,138.7,514.4,138.8,515.5,138.8z" class="st1"/><path d="M472.3,107.1l29.5,29.6c1.8,0.6,3.7,1.1,5.6,1.4l-36.5-36.6C471.3,103.4,471.8,105.3,472.3,107.1z" class="st1"/><path d="M494.7,133.8l-19.4-19.4C479.7,122.6,486.4,129.4,494.7,133.8z" class="st1"/><path d="M515.6,53.1c22.2,0,40.2,17.9,40.3,40.1c0,22.2-17.9,40.2-40.1,40.3c-22.2,0-40.2-17.9-40.3-40.1v-0.1 C475.5,71.1,493.5,53.1,515.6,53.1 M515.6,47.7c-25.2,0-45.7,20.3-45.7,45.5s20.3,45.6,45.5,45.7c25.2,0,45.6-20.3,45.7-45.5 v-0.1C561.1,68.2,540.7,47.7,515.6,47.7L515.6,47.7z" class="st2"/><path d="M515.1,53.4c22.1,0,40.1,18.1,40.1,40.2s-18,40.2-40.1,40.2c-22.1,0-40.1-18-40.1-40.2S493,53.4,515.1,53.4 M515.1,48c-25.2,0-45.7,20.3-45.7,45.5s20.3,45.6,45.5,45.7c25.2,0.1,45.6-20.3,45.7-45.5v-0.1C560.6,68.4,540.3,48,515.1,48 L515.1,48z" class="st2"/></g><g id="_1_2_"><path d="M310,114.3l19.4,19.4c2.3,1.2,4.7,2.2,7.2,3l-29.5-29.6C307.9,109.6,308.9,112,310,114.3z" class="st0"/><path d="M383.2,124.4l-64-64.1c-0.7,0.7-1.4,1.4-2.1,2.1l63.9,64.1C381.9,125.9,382.5,125.2,383.2,124.4z" class="st0"/><path d="M378.9,128.5l-63.6-63.8c-0.6,0.8-1.2,1.6-1.8,2.4l63.1,63.3C377.4,129.8,378,129.1,378.9,128.5z" class="st0"/><path d="M392.9,108.7l-57.8-58c-1,0.4-2,0.8-3,1.2l59.6,59.9C392,110.8,392.4,109.8,392.9,108.7z" class="st0"/><path d="M374,132l-62.3-62.4c-0.5,0.9-1.1,1.8-1.6,2.7l61.1,61.2C372.2,133.1,373.1,132.6,374,132z" class="st0"/><path d="M387,119.8L324,56.5c-0.8,0.6-1.6,1.2-2.4,1.8l63.7,63.8C385.9,121.4,386.4,120.6,387,119.8z" class="st0"/><path d="M355.2,138.5l-49.9-50.1c-0.1,1.3-0.2,2.6-0.3,3.9l46.3,46.4C352.6,138.7,353.9,138.7,355.2,138.5z" class="st0"/><path d="M368.4,134.9l-59.6-59.8c-0.5,1-0.8,2-1.2,3l57.8,58C366.5,135.8,367.5,135.4,368.4,134.9z" class="st0"/><path d="M342.1,138.1c1.6,0.3,3.2,0.5,4.8,0.6l-41.9-42c0.1,1.6,0.3,3.2,0.6,4.8L342.1,138.1z" class="st0"/><path d="M394.6,102.1l-53.1-53.2c-1.1,0.2-2.3,0.5-3.4,0.8l55.7,55.8C394.1,104.4,394.4,103.3,394.6,102.1z" class="st0"/><path d="M362.2,137.2l-55.7-55.8c-0.3,1.1-0.5,2.2-0.8,3.4l53,53.2C360,137.7,361.1,137.5,362.2,137.2z" class="st0"/><path d="M390.2,114.6l-61.1-61.3c-0.9,0.5-1.8,1-2.7,1.6l62.3,62.5C389.2,116.4,389.8,115.5,390.2,114.6z" class="st0"/><path d="M394.8,85.4l-36.5-36.6c-1.6-0.3-3.2-0.5-4.8-0.6l41.9,42C395.2,88.6,394.9,87,394.8,85.4z" class="st0"/><path d="M390.4,72.6L371,53.1c-2.3-1.2-4.7-2.2-7.2-3l29.5,29.6C392.6,77.3,391.6,74.9,390.4,72.6z" class="st0"/><path d="M395.4,94.5L349.2,48c-1.3,0-2.7,0.1-3.9,0.3l49.9,50.1C395.4,97.1,395.4,95.9,395.4,94.5z" class="st0"/><path d="M370.9,53.1l19.5,19.5C386.1,64.3,379.4,57.5,370.9,53.1z" class="st1"/><path d="M393.4,79.8l-29.5-29.6c-1.8-0.6-3.7-1.1-5.6-1.4l36.5,36.6C394.4,83.5,393.9,81.6,393.4,79.8z" class="st1"/><path d="M395.4,93.4c0-1.1,0-2.1-0.1-3.2l-41.9-42c-1.1-0.1-2.1-0.1-3.2-0.1h-1.1l46.3,46.4 C395.4,94.2,395.4,93.8,395.4,93.4z" class="st1"/><path d="M395.1,98.5l-49.9-50.1c-1.2,0.1-2.5,0.3-3.7,0.5l53,53.2C394.9,100.9,395,99.7,395.1,98.5z" class="st1"/><path d="M393.9,105.5l-55.7-55.8c-1.1,0.3-2.1,0.6-3.2,1l57.8,58C393.2,107.7,393.5,106.6,393.9,105.5z" class="st1"/><path d="M391.6,111.8L332,51.9c-1,0.4-1.9,0.9-2.8,1.4l61.1,61.3C390.8,113.6,391.2,112.7,391.6,111.8z" class="st1"/><path d="M388.8,117.3l-62.3-62.5c-0.9,0.5-1.7,1.1-2.5,1.7l63.1,63.3C387.6,119,388.1,118.1,388.8,117.3z" class="st1"/><path d="M385.2,122.2l-63.7-63.8c-0.8,0.6-1.5,1.3-2.2,2l63.9,64.1C383.9,123.7,384.5,123,385.2,122.2z" class="st1"/><path d="M381.1,126.5l-64-64.1c-0.7,0.7-1.3,1.5-2,2.2l63.7,63.8C379.6,127.9,380.4,127.2,381.1,126.5z" class="st1"/><path d="M376.4,130.3l-63.1-63.2c-0.6,0.8-1.1,1.6-1.7,2.5l62.2,62.4C374.9,131.5,375.8,131,376.4,130.3z" class="st1"/><path d="M371.4,133.5l-61.1-61.3c-0.5,0.9-1,1.9-1.4,2.8l59.6,59.8C369.4,134.5,370.4,134.1,371.4,133.5z" class="st1"/><path d="M365.4,136.1l-57.8-58c-0.4,1.1-0.7,2.1-1,3.2l55.7,55.8C363.4,136.9,364.4,136.6,365.4,136.1z" class="st1"/><path d="M358.9,138l-53-53.2c-0.2,1.2-0.4,2.4-0.5,3.7l49.9,50.1C356.4,138.4,357.6,138.2,358.9,138z" class="st1"/><path d="M350.2,138.8h1.1L305,92.4v1.1c0,1.1,0,2.2,0.1,3.2l41.9,42C348,138.7,349.1,138.8,350.2,138.8z" class="st1"/><path d="M307,107.1l29.5,29.6c1.8,0.6,3.7,1.1,5.6,1.4l-36.5-36.6C306,103.4,306.5,105.3,307,107.1z" class="st1"/><path d="M329.4,133.8L310,114.4C314.4,122.6,321.1,129.4,329.4,133.8z" class="st1"/><path d="M350.4,53.1c22.2,0,40.2,17.9,40.3,40.1c0,22.2-17.9,40.2-40.1,40.3c-22.2,0-40.2-17.9-40.3-40.1v-0.1 C310.2,71.1,328.2,53.1,350.4,53.1 M350.4,47.7c-25.2,0-45.7,20.3-45.7,45.5s20.3,45.6,45.5,45.7c25.2,0,45.6-20.3,45.7-45.5 v-0.1C395.9,68.2,375.4,47.7,350.4,47.7L350.4,47.7z" class="st2"/><path d="M349.9,53.4c22.1,0,40.1,18.1,40.1,40.2s-18,40.2-40.1,40.2s-40.1-18-40.1-40.2S327.8,53.4,349.9,53.4 M349.9,48c-25.2,0-45.7,20.3-45.7,45.5s20.3,45.6,45.5,45.7c25.2,0.1,45.6-20.3,45.7-45.5v-0.1C395.4,68.4,375,48,349.9,48 L349.9,48z" class="st2"/><path d="M340.1,109.1l-10.4,5.7c-0.6,0.3-1.2,0.7-1.7,1.2c6.1,5.1,13.9,8.2,22.5,8.2c8.5,0,16.3-3,22.3-8.1 c-0.6-0.5-1.2-0.9-1.8-1.2l-11.2-5.6c-1.4-0.7-2.4-2.2-2.4-3.8v-4.4c0.3-0.4,0.7-0.8,1.1-1.4c1.5-2.1,2.7-4.5,3.5-7 c1.4-0.4,2.5-1.8,2.5-3.3v-4.7c0-1-0.5-1.9-1.2-2.6v-6.8c0,0,1.4-10.5-12.8-10.5s-12.8,10.5-12.8,10.5v6.8 c-0.7,0.6-1.2,1.6-1.2,2.6v4.7c0,1.2,0.6,2.3,1.6,2.9c1.2,5.1,4.2,8.7,4.2,8.7v4.3C342.3,106.9,341.5,108.4,340.1,109.1z" class="st2"/></g><g id="_1_3_"><path d="M144.8,114.3l19.4,19.4c2.3,1.2,4.7,2.2,7.2,3l-29.5-29.6C142.6,109.6,143.6,112,144.8,114.3z" class="st0"/><path d="M218,124.4l-64-64.1c-0.7,0.7-1.4,1.4-2.1,2.1l63.9,64.1C216.6,125.9,217.3,125.2,218,124.4z" class="st0"/><path d="M213.6,128.5L150,64.7c-0.6,0.8-1.2,1.6-1.8,2.4l63.1,63.3C212.1,129.8,212.8,129.1,213.6,128.5z" class="st0"/><path d="M227.6,108.7l-57.8-58c-1,0.4-2,0.8-3,1.2l59.6,59.9C226.8,110.8,227.2,109.8,227.6,108.7z" class="st0"/><path d="M208.8,132l-62.3-62.4c-0.5,0.9-1.1,1.8-1.6,2.7l61.1,61.2C207,133.1,207.9,132.6,208.8,132z" class="st0"/><path d="M221.8,119.8l-63.1-63.3c-0.8,0.6-1.6,1.2-2.4,1.8l63.7,63.8C220.6,121.4,221.2,120.6,221.8,119.8z" class="st0"/><path d="M190,138.5l-49.9-50.1c-0.1,1.3-0.2,2.6-0.3,3.9l46.3,46.4C187.4,138.7,188.6,138.7,190,138.5z" class="st0"/><path d="M203.2,134.9l-59.6-59.8c-0.5,1-0.8,2-1.2,3l57.8,58C201.3,135.8,202.3,135.4,203.2,134.9z" class="st0"/><path d="M176.9,138.1c1.6,0.3,3.2,0.5,4.8,0.6l-41.9-42c0.1,1.6,0.3,3.2,0.6,4.8L176.9,138.1z" class="st0"/><path d="M229.4,102.1l-53.1-53.2c-1.1,0.2-2.3,0.5-3.4,0.8l55.7,55.8C228.9,104.4,229.2,103.3,229.4,102.1z" class="st0"/><path d="M197,137.2l-55.7-55.8c-0.3,1.1-0.5,2.2-0.8,3.4l53,53.2C194.8,137.7,195.9,137.5,197,137.2z" class="st0"/><path d="M225,114.6l-61.1-61.3c-0.9,0.5-1.8,1-2.7,1.6l62.3,62.5C224,116.4,224.5,115.5,225,114.6z" class="st0"/><path d="M229.5,85.4L193,48.8c-1.6-0.3-3.2-0.5-4.8-0.6l41.9,42C230,88.6,229.7,87,229.5,85.4z" class="st0"/><path d="M225.2,72.6l-19.4-19.5c-2.3-1.2-4.7-2.2-7.2-3l29.5,29.6C227.4,77.3,226.4,74.9,225.2,72.6z" class="st0"/><path d="M230.2,94.5L184,48c-1.3,0-2.7,0.1-3.9,0.3L230,98.4C230.1,97.1,230.2,95.9,230.2,94.5z" class="st0"/><path d="M205.7,53.1l19.5,19.5C220.9,64.3,214.1,57.5,205.7,53.1z" class="st1"/><path d="M228.1,79.8l-29.5-29.6c-1.8-0.6-3.7-1.1-5.6-1.4l36.5,36.6C229.2,83.5,228.7,81.6,228.1,79.8z" class="st1"/><path d="M230.2,93.4c0-1.1,0-2.1-0.1-3.2l-41.9-42c-1.1-0.1-2.1-0.1-3.2-0.1h-1.1l46.3,46.4 C230.2,94.2,230.2,93.8,230.2,93.4z" class="st1"/><path d="M229.9,98.5L180,48.4c-1.2,0.1-2.5,0.3-3.7,0.5l53,53.2C229.6,100.9,229.8,99.7,229.9,98.5z" class="st1"/><path d="M228.6,105.5l-55.7-55.8c-1.1,0.3-2.1,0.6-3.2,1l57.8,58C228,107.7,228.3,106.6,228.6,105.5z" class="st1"/><path d="M226.4,111.8l-59.6-59.9c-1,0.4-1.9,0.9-2.8,1.4l61.1,61.3C225.5,113.6,226,112.7,226.4,111.8z" class="st1"/><path d="M223.5,117.3l-62.3-62.5c-0.9,0.5-1.7,1.1-2.5,1.7l63.1,63.3C222.4,119,222.9,118.1,223.5,117.3z" class="st1"/><path d="M220,122.2l-63.7-63.8c-0.8,0.6-1.5,1.3-2.2,2l63.9,64.1C218.7,123.7,219.3,123,220,122.2z" class="st1"/><path d="M215.9,126.5l-64-64.1c-0.7,0.7-1.3,1.5-2,2.2l63.7,63.8C214.4,127.9,215.2,127.2,215.9,126.5z" class="st1"/><path d="M211.2,130.3l-63.1-63.2c-0.6,0.8-1.1,1.6-1.7,2.5l62.2,62.4C209.6,131.5,210.5,131,211.2,130.3z" class="st1"/><path d="M206.1,133.5L145,72.2c-0.5,0.9-1,1.9-1.4,2.8l59.6,59.8C204.2,134.5,205.1,134.1,206.1,133.5z" class="st1"/><path d="M200.2,136.1l-57.8-58c-0.4,1.1-0.7,2.1-1,3.2l55.7,55.8C198.1,136.9,199.2,136.6,200.2,136.1z" class="st1"/><path d="M193.6,138l-53-53.2c-0.2,1.2-0.4,2.4-0.5,3.7l49.9,50.1C191.2,138.4,192.4,138.2,193.6,138z" class="st1"/><path d="M185,138.8h1.1l-46.3-46.4v1.1c0,1.1,0,2.2,0.1,3.2l41.9,42C182.8,138.7,183.9,138.8,185,138.8z" class="st1"/><path d="M141.8,107.1l29.5,29.6c1.8,0.6,3.7,1.1,5.6,1.4l-36.5-36.6C140.8,103.4,141.3,105.3,141.8,107.1z" class="st1"/><path d="M164.2,133.8l-19.4-19.4C149.2,122.6,155.9,129.4,164.2,133.8z" class="st1"/><path d="M185.1,53.1c22.2,0,40.2,17.9,40.3,40.1c0,22.2-17.9,40.2-40.1,40.3c-22.2,0-40.2-17.9-40.3-40.1v-0.1 C145,71.1,163,53.1,185.1,53.1 M185.1,47.7c-25.2,0-45.7,20.3-45.7,45.5s20.3,45.6,45.5,45.7c25.2,0,45.6-20.3,45.7-45.5v-0.1 C230.6,68.2,210.2,47.7,185.1,47.7L185.1,47.7z" class="st2"/><path d="M184.6,53.4c22.1,0,40.1,18.1,40.1,40.2s-18,40.2-40.1,40.2s-40.1-18-40.1-40.2S162.5,53.4,184.6,53.4 M184.6,48c-25.2,0-45.7,20.3-45.7,45.5s20.3,45.6,45.5,45.7s45.6-20.3,45.7-45.5v-0.1C230.1,68.4,209.8,48,184.6,48L184.6,48z" class="st2"/><g><g><g><path d="M202.3,116c1.7,1.7,2.7,0.5,4.1-0.9s2.6-2.4,0.9-4.1c0,0-24.8-24.8-30.5-30.5l-5,5L202.3,116L202.3,116z" class="st2" transform="translate(0.000000, 1.000000)"/><path d="M164,91l1.9-1.9c0,0-0.9-2.3,0.4-3.5s3.4-0.4,3.4-0.4l6.8-6.6c0,0-0.5-3.4,0.2-4c0.6-0.6,7.7-4.1,8.3-4.7 l-1.4-1.4c0,0-9.8,1.2-10.9,2.2c-0.6,0.6-5.3,5.4-8.7,8.7c0,0,0.8,2.4-0.3,3.5c-1.1,1.1-3.6,0.3-3.6,0.3c-1.2,1.2-2,2-2,2 c-0.8,0.8-0.3,2,0.7,3l2.2,2.2C162,91.4,163.1,91.9,164,91L164,91z" class="st2" transform="translate(0.000000, 1.000000)"/></g><path d="M194.5,86.3c3.4,1.6,7.6,1.1,10.5-1.7c2.2-2.2,3-5.2,2.6-8l-4.8,4.8l-4.1,1l-4.6-4.5l1.1-4.2l4.7-4.7 c-2.8-0.5-6,0.2-8.2,2.4c-2.8,2.8-3.2,7.2-1.6,10.6l-5,5c1.4,1.4,2.8,2.8,4.4,4.4L194.5,86.3L194.5,86.3z" class="st2" transform="translate(0.000000, 1.000000)"/><path d="M183,98.7l-4.7-4.7l-6.2,6.2c-0.3,0.3-0.4,0.5-0.6,0.8c-0.2-0.1-0.4-0.1-0.5-0.1c-0.8-0.3-1.6-0.4-2.5-0.4 c-4.3,0-7.9,3.5-7.9,7.8s3.5,7.8,7.9,7.8c4.3,0,7.9-3.5,7.9-7.8c0-0.9-0.2-1.7-0.5-2.5c0-0.1,0-0.1-0.1-0.3 c0.3-0.1,0.6-0.3,0.9-0.6l4.1-4.1L183,98.7z M168.5,112.8c-2.6,0-4.6-2-4.6-4.5c0-2.5,2.1-4.5,4.6-4.5c2.6,0,4.6,2,4.6,4.5 C173.2,110.8,171.1,112.8,168.5,112.8L168.5,112.8z" class="st2" transform="translate(0.000000, 1.000000)"/></g></g></g><path d="M497.9,111.3l11.1-4.8c0.6-0.3,1.1-1.3,1.4-2c0.3-0.6-0.2-1.4-0.9-1.4h-7.9c0,0-2.8-0.3-5-1.2 c-1.3-0.6-1.7-1.3-0.9-2.4c2.3-3.3,7.2-11.2,7.4-19.3c0,0,0.3-12.5,12.6-12.6c7.2,0.1,10.6,4.3,12.2,7.8c0.9,2,1.3,4.1,1.4,6.3 c0.5,7.7,4.5,14.8,6.3,17.9c0.6,1,0.3,2.4-0.7,3c-1.7,1-3.8,0.6-3.8,0.6h-7.9c-0.8,0-1.1,1.1-0.5,1.6c0.5,0.4,1,0.7,1.2,0.9 l9.2,5.6c1.3,0.7,2.4,1.8,3.1,3.1c-5.5,4.5-12.6,7.2-20.3,7.2c-8,0-15.3-2.9-21-7.8C495.8,112.7,496.8,111.9,497.9,111.3z" class="st2"/><g><path d="M158,168.7c0.3-1,0.5-2,0.7-3h-6v-1.6h6.3c0.2-1,0.4-1.9,0.6-2.9l1.8,0.1c-0.2,1-0.4,1.9-0.6,2.8h10.3v1.6h-10.7 c-0.2,1.1-0.5,2-0.7,3h12.8v1.7h-13.3c-0.3,1.1-0.7,2.2-1,3.2h11.4v1.5c-1.2,1.8-3,3.6-5.4,5.4c1.4,0.5,2.8,1.1,4.2,1.8l-1,1.5 c-3.6-1.8-7.3-3.2-11.1-4.2l0.9-1.3c1.8,0.5,3.5,1,5.2,1.6c2.2-1.4,4-3,5.2-4.6h-11.9c0.6-1.5,1.1-3.1,1.6-4.8h-6.4v-1.7H158z"/><path d="M184.1,161.6v19.1h3.4v-19.1h1.8v19.1h7.2v1.7h-21.3v-1.7h7.2v-19.1H184.1z M180.7,177.1l-1.6,0.4 c-0.9-3.8-1.9-7.5-3.2-11.1l1.5-0.5C178.6,169.2,179.7,172.9,180.7,177.1z M195.9,166.4c-1,4.2-2.2,7.8-3.6,11l-1.6-0.6 c1.4-2.8,2.6-6.5,3.6-10.8L195.9,166.4z"/><path d="M205.2,162.1c-1.3,3-2.6,5.4-3.9,7.1c1.2-0.1,2.3-0.3,3.4-0.5c0.5-0.9,1-1.8,1.6-2.9l1.6,0.6c-2.3,4.1-4.2,7.1-5.7,8.8 c1.8-0.4,3.6-0.9,5.3-1.6v1.6c-2.6,0.9-5.1,1.6-7.5,1.9l-0.5-1.6c0.3-0.1,0.6-0.3,0.8-0.5c1-0.9,2.1-2.5,3.5-4.8 c-1.4,0.2-2.8,0.4-4.2,0.6l-0.4-1.6c0.3-0.1,0.5-0.3,0.7-0.6c1.4-2.1,2.6-4.5,3.7-7.2L205.2,162.1z M207.3,179.7 c-2.3,1.1-4.8,1.9-7.8,2.5l-0.2-1.7c3.1-0.6,5.7-1.4,8-2.5V179.7z M218.8,180.9h2v1.7h-13.9v-1.7h2.1v-18.4h9.7V180.9z M217,168.5v-4.3h-6.3v4.3H217z M217,174.7v-4.5h-6.3v4.5H217z M217,180.9v-4.6h-6.3v4.6H217z"/></g><g><path d="M324.4,161.6v19.1h3.4v-19.1h1.8v19.1h7.2v1.7h-21.3v-1.7h7.2v-19.1H324.4z M320.9,177.1l-1.6,0.4 c-0.9-3.8-1.9-7.5-3.2-11.1l1.5-0.5C318.8,169.2,320,172.9,320.9,177.1z M336.1,166.4c-1,4.2-2.2,7.8-3.6,11l-1.6-0.6 c1.4-2.8,2.6-6.5,3.6-10.8L336.1,166.4z"/><path d="M350.8,161.5c3,2.8,6.5,5.1,10.5,6.7l-0.9,1.6c-4-1.7-7.4-4-10.2-6.8c-2.6,2.7-6,5-10.3,6.9l-0.9-1.6 c4.2-1.8,7.8-4.1,10.6-6.8H350.8z M346.6,176.5c-1.4,2.5-3.2,4.4-5.4,5.7l-1.3-1.1c2.3-1.3,4-3,5.2-5.2L346.6,176.5z M356.6,167.9v1.7h-5.3v3.1h8.7v1.7h-8.7v6.3c0,1.6-0.8,2.4-2.5,2.4h-2.9l-0.4-1.6c0.9,0,1.8,0.1,2.7,0.1c0.9,0,1.4-0.5,1.4-1.3 v-5.9h-9.1v-1.7h9.1v-3.1h-5.7v-1.7H356.6z M360.7,181.3l-1.4,1c-1.3-1.8-3.1-3.7-5.3-5.8l1.3-0.8 C357.6,177.8,359.4,179.7,360.7,181.3z"/><path d="M369.5,162.1c-1.3,3-2.6,5.4-3.9,7.1c1.2-0.1,2.3-0.3,3.4-0.5c0.5-0.9,1-1.8,1.6-2.9l1.6,0.6c-2.3,4.1-4.2,7.1-5.7,8.8 c1.8-0.4,3.6-0.9,5.3-1.6v1.6c-2.6,0.9-5.1,1.6-7.5,1.9l-0.5-1.6c0.3-0.1,0.6-0.3,0.8-0.5c1-0.9,2.1-2.5,3.5-4.8 c-1.4,0.2-2.8,0.4-4.2,0.6l-0.4-1.6c0.3-0.1,0.5-0.3,0.7-0.6c1.4-2.1,2.6-4.5,3.7-7.2L369.5,162.1z M371.6,179.7 c-2.3,1.1-4.8,1.9-7.8,2.5l-0.2-1.7c3.1-0.6,5.7-1.4,8-2.5V179.7z M383,180.9h2v1.7h-13.9v-1.7h2.1v-18.4h9.7V180.9z M381.3,168.5v-4.3H375v4.3H381.3z M381.3,174.7v-4.5H375v4.5H381.3z M381.3,180.9v-4.6H375v4.6H381.3z"/></g><path d="M483.5,176.4c-0.6,2.4-1.5,4.5-2.6,6.3l-1.4-0.9c1.1-1.7,1.9-3.6,2.5-5.8L483.5,176.4z M482.6,168.9 c-0.4-1-0.8-1.9-1.3-2.7l1.5-0.6c0.5,0.9,0.9,2,1.3,3.3h2.6c0.5-1.1,0.9-2.2,1.2-3.3l1.6,0.5c-0.4,1-0.8,2-1.2,2.8h2.7v1.6h-4.6 v2.7h4.2v1.6h-4.2v6.8c0,1.3-0.7,1.9-2.1,1.9H483l-0.4-1.6c0.4,0.1,0.7,0.1,1.1,0.1c0.6,0,0.9-0.3,0.9-0.9v-6.4h-4.5v-1.6h4.5 v-2.7h-4.8v-1.6H482.6z M484.6,163.5c-0.3-0.8-0.7-1.5-1.1-2.1l1.8-0.3c0.4,0.7,0.7,1.5,1,2.4h4.5v1.6h-10.8v-1.6H484.6z M490.4,180.2l-1.4,0.6c-0.5-1.5-1-3-1.7-4.4l1.4-0.4C489.5,177.4,490.1,178.9,490.4,180.2z M500.9,163.2c-2.1,0.8-4.4,1.3-7,1.5 v4.4h7.8v1.7h-2.5v12.8h-1.7v-12.8h-3.6v2.9c-0.1,4.1-1,7.4-2.8,9.9l-1.2-1.3c1.4-2.1,2.2-4.9,2.3-8.6v-10.3 c2.9,0,5.5-0.6,7.8-1.6L500.9,163.2z"/><path d="M515.6,167.8v4.2h-1.8v-4.2h-0.6c-1.5,2.1-4.2,4-8.3,5.5l-1-1.6c3.6-1.2,6.1-2.5,7.5-3.9h-7.1v-1.6h9.4v-2.1 c-2.2,0.1-4.6,0.2-7.1,0.2l-0.5-1.5c6.2,0,11.4-0.5,15.5-1.3l0.8,1.5c-2,0.4-4.3,0.7-6.9,1v2.2h9v1.6h-6.7 c1.6,1.6,4.1,2.9,7.4,3.8l-0.8,1.6c-3.9-1.4-6.7-3.2-8.4-5.4H515.6z M507.7,174.6V173h12.3v0.8l-0.8,2.4h4.3v0.8 c-0.2,2.9-0.6,4.6-1.2,5.2c-0.4,0.5-0.9,0.7-1.6,0.8c-0.9,0.1-2.2,0.1-3.9,0.1l-0.5-1.6c1.3,0,2.4,0,3.4,0c0.5,0,0.8-0.1,1.1-0.3 c0.5-0.4,0.8-1.5,1.1-3.5H517l1-3.2h-5.4c-0.3,4-2.8,6.9-7.4,8.7l-0.9-1.5c4.2-1.4,6.4-3.8,6.8-7.2H507.7z"/><path d="M533.9,162.1c-1.3,3-2.6,5.4-3.9,7.1c1.2-0.1,2.3-0.3,3.4-0.5c0.5-0.9,1-1.8,1.6-2.9l1.6,0.6c-2.3,4.1-4.2,7.1-5.7,8.8 c1.8-0.4,3.6-0.9,5.3-1.6v1.6c-2.6,0.9-5.1,1.6-7.5,1.9l-0.5-1.6c0.3-0.1,0.6-0.3,0.8-0.5c1-0.9,2.1-2.5,3.5-4.8 c-1.4,0.2-2.8,0.4-4.2,0.6l-0.4-1.6c0.3-0.1,0.5-0.3,0.7-0.6c1.4-2.1,2.6-4.5,3.7-7.2L533.9,162.1z M536,179.7 c-2.3,1.1-4.8,1.9-7.8,2.5l-0.2-1.7c3.1-0.6,5.7-1.4,8-2.5V179.7z M547.5,180.9h2v1.7h-13.9v-1.7h2.1v-18.4h9.7V180.9z M545.8,168.5v-4.3h-6.3v4.3H545.8z M545.8,174.7v-4.5h-6.3v4.5H545.8z M545.8,180.9v-4.6h-6.3v4.6H545.8z"/></g></switch></svg>