<svg xmlns="http://www.w3.org/2000/svg" xmlns:svg="http://www.w3.org/2000/svg" id="Layer_1" x="0" y="0" version="1.1" viewBox="0 0 202 202" xml:space="preserve" style="enable-background:new 0 0 202 202"><metadata id="metadata7058"/><style id="style6961" type="text/css">.st2{fill:#006400}</style><g id="Layer_2"><g id="g6966"><g id="g6968" style="fill:#7b6c45;fill-opacity:1"><path id="path7034" d="M101,12.8c48.6,0,88.2,39.6,88.2,88.2s-39.6,88.2-88.2,88.2S12.8,149.6,12.8,101S52.4,12.8,101,12.8 M101,1 C45.8,1,1,45.8,1,101s44.8,100,100,100s100-44.8,100-100S156.2,1,101,1L101,1z" class="st2" style="fill:#7b6c45;fill-opacity:1"/></g><g id="g7036" style="fill:#7b6c45;fill-opacity:1"><path id="path7048" d="M160.4,63.5L125,59.8V42.7l-1.3-0.8c-16.1-9.6-30.8-3.6-31.4-3.4l-1.7,0.7v5.6c-7.3-0.2-12.4,1.9-12.8,2.1 l-1.7,0.7v7.1L56,52.6c-2-0.2-3.8,1.4-3.9,3.4l24,2.5v4.9l-35.5-3.7c-2.1-0.2-3.9,1.4-3.9,3.5v6.6l44,30.2 c0.6-1.4,2.1-2.3,3.8-2.2l18,1.7c2.1,0.2,3.7,1.9,3.8,4l41.9-21.2v-8.2c0-1.8-1.4-3.3-3.2-3.5L110.6,67v-4.9l9,0.9v0.2h2l28.9,3 c1.8,0.2,3.2,1.7,3.2,3.5v62.1c0,0-0.1,9-0.1,11.7c0,3.5-5.3,3.8-5.3-0.4V88.4l-41.9,21.2v5.1c0,2.1-1.6,3.7-3.7,3.7 c-0.1,0-0.3,0-0.4,0l-18-1.7c-2.2-0.2-3.9-2.1-3.9-4.2v-6l-43.6-30v58.1c0,1.2,0.6,2.2,1.5,2.9c1.9,4.2,6,7.7,13.8,8.7 c12.2,1.6,84.4,10.7,93.1,11.1c8.3,0.4,17.3-7.4,18.2-18.3c0.1-0.2,0.1-0.5,0.1-0.8V67C163.5,65.2,162.2,63.7,160.4,63.5z M81.7,51.4c1.8-0.5,5-1.2,9-1.1v5.9l-9-0.9V51.4z M105.1,57.7l-9-0.9v-5.9c2.8,0.6,5.9,1.6,9,3.3V57.7z M105.1,66.5L81.7,64 v-4.9l23.4,2.4V66.5z M110.6,58.3V51l-1.3-0.8c-4.6-2.7-9.1-4.2-13.1-4.9V43c3.7-1,13.2-2.7,23.4,2.8v13.4L110.6,58.3z" class="st2" style="fill:#7b6c45;fill-opacity:1"/><path id="path7050" d="M82.7,112.4c0,1,0.8,1.8,1.8,1.9l18,1.7c0.9,0.1,1.5-0.5,1.5-1.4v-11c0-1-0.8-1.8-1.8-1.9l-18-1.7 c-0.1,0-0.1,0-0.2,0c-0.8,0-1.4,0.6-1.4,1.4L82.7,112.4L82.7,112.4z" class="st2" style="fill:#7b6c45;fill-opacity:1"/></g></g></g></svg>